<svg width="23" height="23" viewBox="0 0 23 23" fill="none" xmlns="http://www.w3.org/2000/svg">
<path d="M18.8889 1H4.11111C2.39289 1 1 2.39289 1 4.11111V18.8889C1 20.6071 2.39289 22 4.11111 22H18.8889C20.6071 22 22 20.6071 22 18.8889V4.11111C22 2.39289 20.6071 1 18.8889 1Z" stroke="black" stroke-width="2"/>
<path d="M7.34211 7.77551C8.08333 7.77551 8.68421 7.15419 8.68421 6.38775C8.68421 5.62132 8.08333 5 7.34211 5C6.60088 5 6 5.62132 6 6.38775C6 7.15419 6.60088 7.77551 7.34211 7.77551Z" fill="black"/>
<path d="M6.07895 9H8.60527V17H6.07895V9Z" fill="black"/>
<path d="M9.94736 9H12.3158V10.1429C12.8684 9.32653 13.8158 8.83673 14.921 8.83673C17.1316 8.83673 18 10.3878 18 12.8367V17H15.5526V13.3265C15.5526 12.1837 15.2368 11.2857 14.1316 11.2857C13.1053 11.2857 12.3158 12.0204 12.3158 13.4898V17H9.94736V9Z" fill="black"/>
</svg>
