<svg width="20" height="23" viewBox="0 0 20 23" fill="none" xmlns="http://www.w3.org/2000/svg">
<path d="M4.21429 1H12.8929L19 6.86765V18.9118C19 19.3173 18.9169 19.7189 18.7553 20.0936C18.5938 20.4683 18.357 20.8087 18.0586 21.0955C17.7601 21.3822 17.4057 21.6097 17.0158 21.7649C16.6258 21.9201 16.2078 22 15.7857 22H4.21429C3.79218 22 3.37421 21.9201 2.98423 21.7649C2.59426 21.6097 2.23992 21.3822 1.94144 21.0955C1.64297 20.8087 1.40621 20.4683 1.24467 20.0936C1.08314 19.7189 1 19.3173 1 18.9118V4.08824C1 3.26918 1.33865 2.48368 1.94144 1.90452C2.54424 1.32537 3.3618 1 4.21429 1Z" stroke="black" stroke-width="2" stroke-linejoin="round"/>
<path d="M12.5714 1.30884V7.17648H18.6786" stroke="black" stroke-width="2" stroke-linecap="round" stroke-linejoin="round"/>
<path d="M6 12H14.3571" stroke="black" stroke-width="2" stroke-linecap="round"/>
<path d="M6 17H14.3571" stroke="black" stroke-width="2" stroke-linecap="round"/>
</svg>
