<svg xmlns="http://www.w3.org/2000/svg" width="886" height="876" viewBox="0 0 886 876" fill="none" role="img" aria-labelledby="title desc">
  <title id="title">Music note icon</title>
  <desc id="desc">A high-quality vector music note icon traced from the provided reference, with a transparent background.</desc>
  <path d="M 867 22 L 863 18 L 862 18 L 859 15 L 855 13 L 852 13 L 849 11 L 836 11 L 835 12 L 832 12 L 831 13 L 821 13 L 820 14 L 804 15 L 803 16 L 793 16 L 792 17 L 788 17 L 787 18 L 776 18 L 775 19 L 759 20 L 758 21 L 748 21 L 747 22 L 743 22 L 742 23 L 731 23 L 730 24 L 714 25 L 713 26 L 704 26 L 703 27 L 697 27 L 696 28 L 686 28 L 685 29 L 669 30 L 668 31 L 658 31 L 657 32 L 652 32 L 651 33 L 641 33 L 640 34 L 634 34 L 633 35 L 614 36 L 613 37 L 607 37 L 606 38 L 596 38 L 595 39 L 590 39 L 589 40 L 578 40 L 577 41 L 569 41 L 568 42 L 562 42 L 561 43 L 551 43 L 550 44 L 545 44 L 544 45 L 533 45 L 532 46 L 524 46 L 523 47 L 517 47 L 516 48 L 506 48 L 505 49 L 500 49 L 499 50 L 488 50 L 487 51 L 480 51 L 479 52 L 472 52 L 471 53 L 460 53 L 459 54 L 454 54 L 453 55 L 443 55 L 442 56 L 436 56 L 435 57 L 415 58 L 414 59 L 410 59 L 409 60 L 398 60 L 397 61 L 391 61 L 390 62 L 371 63 L 370 64 L 365 64 L 364 65 L 353 65 L 352 66 L 346 66 L 345 67 L 326 68 L 325 69 L 320 69 L 319 70 L 308 70 L 307 71 L 301 71 L 300 72 L 291 72 L 290 73 L 284 73 L 283 74 L 280 74 L 272 78 L 265 85 L 264 88 L 262 90 L 262 92 L 260 96 L 260 101 L 259 102 L 259 650 L 258 651 L 256 651 L 237 641 L 235 641 L 232 639 L 230 639 L 229 638 L 221 636 L 218 634 L 215 634 L 214 633 L 211 633 L 210 632 L 206 632 L 205 631 L 201 631 L 200 630 L 197 630 L 196 629 L 190 629 L 189 628 L 177 628 L 176 627 L 151 627 L 150 628 L 145 628 L 144 629 L 135 629 L 131 631 L 121 632 L 117 634 L 114 634 L 113 635 L 107 636 L 104 638 L 99 639 L 96 641 L 94 641 L 78 649 L 73 653 L 67 656 L 57 664 L 56 664 L 38 682 L 38 683 L 32 690 L 29 696 L 27 698 L 20 712 L 20 715 L 18 718 L 18 721 L 17 722 L 16 728 L 15 729 L 15 735 L 13 739 L 13 760 L 15 764 L 15 769 L 16 770 L 16 774 L 18 778 L 18 781 L 20 784 L 20 786 L 23 791 L 23 793 L 26 799 L 30 804 L 30 806 L 33 809 L 35 813 L 40 818 L 40 819 L 52 831 L 53 831 L 59 837 L 60 837 L 70 845 L 75 847 L 82 852 L 86 853 L 88 855 L 90 855 L 95 858 L 97 858 L 105 862 L 108 862 L 109 863 L 111 863 L 115 865 L 118 865 L 122 867 L 127 867 L 128 868 L 136 869 L 137 870 L 146 870 L 147 871 L 150 871 L 151 872 L 182 872 L 183 871 L 186 871 L 187 870 L 195 870 L 196 869 L 201 869 L 202 868 L 205 868 L 206 867 L 211 867 L 215 865 L 218 865 L 219 864 L 221 864 L 225 862 L 228 862 L 230 860 L 233 860 L 249 852 L 251 852 L 256 848 L 259 847 L 261 845 L 264 844 L 266 842 L 270 840 L 280 831 L 281 831 L 292 820 L 292 819 L 300 810 L 303 804 L 305 802 L 306 799 L 308 797 L 308 795 L 310 793 L 310 791 L 313 786 L 313 783 L 315 780 L 315 777 L 317 774 L 317 769 L 318 768 L 318 764 L 319 763 L 319 754 L 320 753 L 320 285 L 321 284 L 323 284 L 324 283 L 332 283 L 333 282 L 339 282 L 340 281 L 350 281 L 351 280 L 357 280 L 358 279 L 377 278 L 378 277 L 384 277 L 385 276 L 395 276 L 396 275 L 401 275 L 402 274 L 413 274 L 414 273 L 422 273 L 423 272 L 429 272 L 430 271 L 440 271 L 441 270 L 446 270 L 447 269 L 458 269 L 459 268 L 466 268 L 467 267 L 474 267 L 475 266 L 485 266 L 486 265 L 491 265 L 492 264 L 503 264 L 504 263 L 511 263 L 512 262 L 530 261 L 531 260 L 536 260 L 537 259 L 548 259 L 549 258 L 554 258 L 555 257 L 575 256 L 576 255 L 581 255 L 582 254 L 593 254 L 594 253 L 599 253 L 600 252 L 620 251 L 621 250 L 626 250 L 627 249 L 638 249 L 639 248 L 645 248 L 646 247 L 655 247 L 656 246 L 664 246 L 665 245 L 671 245 L 672 244 L 683 244 L 684 243 L 689 243 L 690 242 L 700 242 L 701 241 L 708 241 L 709 240 L 727 239 L 728 238 L 733 238 L 734 237 L 745 237 L 746 236 L 753 236 L 754 235 L 772 234 L 773 233 L 778 233 L 779 232 L 790 232 L 791 231 L 807 230 L 808 229 L 812 229 L 814 231 L 814 588 L 813 589 L 809 589 L 807 587 L 805 587 L 803 585 L 801 585 L 797 582 L 795 582 L 793 580 L 791 580 L 785 577 L 782 577 L 779 575 L 774 574 L 771 572 L 768 572 L 767 571 L 764 571 L 763 570 L 758 570 L 757 569 L 749 568 L 748 567 L 737 567 L 736 566 L 726 566 L 725 565 L 713 565 L 712 566 L 703 566 L 702 567 L 693 567 L 692 568 L 687 568 L 686 569 L 683 569 L 682 570 L 677 570 L 673 572 L 666 573 L 665 574 L 660 575 L 657 577 L 652 578 L 649 580 L 647 580 L 633 587 L 631 589 L 628 590 L 626 592 L 620 595 L 617 598 L 616 598 L 613 601 L 612 601 L 605 608 L 604 608 L 591 622 L 591 623 L 586 629 L 586 630 L 582 635 L 581 638 L 579 640 L 579 642 L 577 644 L 577 646 L 574 651 L 574 654 L 572 657 L 572 660 L 570 663 L 570 668 L 569 669 L 569 674 L 568 675 L 568 684 L 567 685 L 567 691 L 568 692 L 568 700 L 569 701 L 569 707 L 570 708 L 570 712 L 572 716 L 572 719 L 574 722 L 574 724 L 577 729 L 577 731 L 580 737 L 582 739 L 584 744 L 587 747 L 587 748 L 593 755 L 593 756 L 609 772 L 610 772 L 614 776 L 615 776 L 618 779 L 619 779 L 627 785 L 630 786 L 632 788 L 648 796 L 650 796 L 653 798 L 658 799 L 661 801 L 664 801 L 665 802 L 671 803 L 672 804 L 678 805 L 679 806 L 684 806 L 688 808 L 697 808 L 698 809 L 704 809 L 705 810 L 736 810 L 737 809 L 743 809 L 744 808 L 753 808 L 757 806 L 762 806 L 763 805 L 766 805 L 770 803 L 774 803 L 777 801 L 780 801 L 786 798 L 788 798 L 791 796 L 793 796 L 809 788 L 811 786 L 814 785 L 816 783 L 823 779 L 826 776 L 830 774 L 849 755 L 849 754 L 855 747 L 858 741 L 862 736 L 862 734 L 867 725 L 867 722 L 869 719 L 869 716 L 870 715 L 871 709 L 872 708 L 872 703 L 873 702 L 873 699 L 874 698 L 874 36 L 872 33 L 872 30 L 867 23 Z" fill="#000000"/>
</svg>
